<?xml version="1.0" encoding="UTF-8"?>
<svg version="1.1" xmlns="http://www.w3.org/2000/svg" width="364" height="162">
<path d="M0 0 C120.12 0 240.24 0 364 0 C364 53.46 364 106.92 364 162 C243.88 162 123.76 162 0 162 C0 108.54 0 55.08 0 0 Z " fill="#FDFEFE" transform="translate(0,0)"/>
<path d="M0 0 C6.81184815 2.4419833 11.69825675 7.64108708 15 14 C15.46188841 17.79774913 15.73665892 21.52668217 14 25 C13.86097062 29.30991069 13.90626468 32.83902682 15 37 C11.50016197 37.08803772 8.00061362 37.14073608 4.5 37.1875 C3.51773438 37.21263672 2.53546875 37.23777344 1.5234375 37.26367188 C-6.05770369 37.33948329 -12.10815663 36.33538091 -18.375 31.75 C-22.2644636 27.67532385 -22.81367011 24.04962884 -23.3125 18.5625 C-22.84852664 13.27320374 -22.06710516 8.95297052 -18.08984375 5.1953125 C-11.8963174 0.49677527 -7.79400219 -0.66050866 0 0 Z " fill="#1654C2" transform="translate(80,58)"/>
<path d="M0 0 C0.18266737 5.65638951 -0.3276502 10.42965932 -1.8125 15.875 C-2.08380737 16.9105603 -2.08380737 16.9105603 -2.3605957 17.96704102 C-6.46046689 33.46046689 -6.46046689 33.46046689 -8 35 C-12.40756402 35.37511183 -15.67426103 34.88932396 -19.875 33.5 C-24.79535335 31.90258054 -28.84326157 31.67258804 -34 32 C-36.01481734 34.01481734 -35.7214027 37.79076863 -36.0625 40.5625 C-36.15337891 41.27341797 -36.24425781 41.98433594 -36.33789062 42.71679688 C-36.56239503 44.47738403 -36.78168397 46.23863478 -37 48 C-36.05898438 47.4225 -35.11796875 46.845 -34.1484375 46.25 C-32.89103539 45.49931217 -31.63319967 44.74935031 -30.375 44 C-29.75753906 43.6184375 -29.14007812 43.236875 -28.50390625 42.84375 C-24.50391828 40.48586235 -21.7765094 39.52969754 -17 40 C-17.1015625 41.6953125 -17.1015625 41.6953125 -18 44 C-20.09583865 45.78884257 -22.10988606 47.33302798 -24.375 48.875 C-25.31641846 49.52819214 -25.31641846 49.52819214 -26.27685547 50.19458008 C-41.05554546 60.29990739 -41.05554546 60.29990739 -45.3046875 59.64453125 C-45.86414062 59.43183594 -46.42359375 59.21914062 -47 59 C-46.62277221 52.27493903 -45.6647926 46.10995258 -43.7578125 39.6484375 C-42.8343094 36.42093696 -42.16324629 33.16958078 -41.52734375 29.875 C-41 28 -41 28 -39 25 C-30.10739575 23.34782216 -20.39680016 26.20106661 -12 29 C-10.68 22.73 -9.36 16.46 -8 10 C-14.4687024 13.48888931 -14.4687024 13.48888931 -17.9375 16.25 C-21.97643841 18.55796481 -24.41166657 18.31643679 -29 18 C-27.50704608 13.58125718 -24.10632801 11.84929163 -20.3125 9.5625 C-19.03669561 8.77516031 -17.76194234 7.98611466 -16.48828125 7.1953125 C-15.5768335 6.63118652 -15.5768335 6.63118652 -14.64697266 6.05566406 C-12.67418525 4.79116173 -10.83788601 3.38955441 -9 1.9375 C-5.65922342 -0.22008488 -3.90060534 -0.47568358 0 0 Z " fill="#2083F9" transform="translate(52,47)"/>
<path d="M0 0 C4.64425866 2.49413891 8.31375022 4.94125067 10 10 C10.03954234 12.33299825 10.04401732 14.66708189 10 17 C9.34 17 8.68 17 8 17 C7.9175 17.7425 7.835 18.485 7.75 19.25 C6.84562401 22.56604529 5.6285474 23.83531391 3 26 C0.35559361 26.8814688 -1.28060752 27.16174818 -4 27.1875 C-4.680625 27.20167969 -5.36125 27.21585938 -6.0625 27.23046875 C-8 27 -8 27 -11 25 C-11.33 31.6 -11.66 38.2 -12 45 C-13.98 45 -15.96 45 -18 45 C-18.07447267 40.41019186 -18.12875322 35.82073986 -18.16479492 31.23046875 C-18.17982869 29.67083606 -18.20026135 28.11124528 -18.22631836 26.55175781 C-18.26294211 24.30262884 -18.27978021 22.05406153 -18.29296875 19.8046875 C-18.30845261 19.1138205 -18.32393646 18.42295349 -18.33988953 17.71115112 C-18.34194837 11.71222829 -16.3844586 7.05650687 -12.375 2.625 C-8.65054912 -0.89562521 -4.88204404 -1.04115276 0 0 Z " fill="#1259C0" transform="translate(206,68)"/>
<path d="M0 0 C4.82367849 0.08862401 7.67404828 0.92989049 11.47265625 3.85546875 C15.24012298 8.3039353 15.06680014 13.18512071 14.9375 18.75 C14.92847656 19.49056641 14.91945312 20.23113281 14.91015625 20.99414062 C14.88674213 22.80873467 14.85087615 24.62316071 14.8125 26.4375 C11.91609882 26.51870751 9.02199088 26.57809421 6.125 26.625 C5.30837891 26.65013672 4.49175781 26.67527344 3.65039062 26.70117188 C-1.136841 26.75931639 -4.32388445 26.59132254 -8.1875 23.4375 C-11.58782891 18.84246093 -12.89683663 15.26022411 -12.65234375 9.51953125 C-11.89332758 6.11990422 -9.8477108 4.52766563 -7.1875 2.4375 C-4.64190061 -0.10809939 -3.53805377 0.08296126 0 0 Z " fill="#1E57BA" transform="translate(236.1875,68.5625)"/>
<path d="M0 0 C3.33390849 1.59392577 5.24134378 3.93098441 7.375 6.9375 C8.49622367 10.6375381 8.68399917 13.45292892 7.08984375 17.05859375 C4.47904548 21.63378686 2.17923111 24.34264604 -3 26 C-7.60032877 26.65718982 -9.36093773 26.43013806 -13.25 23.8125 C-17.18490885 19.7881614 -19.14679854 17.16398976 -19.4375 11.5 C-19.29407469 7.1900693 -18.19590365 5.01328058 -15 2 C-10.323868 -1.11742133 -5.4709911 -0.71549289 0 0 Z " fill="#1B54B4" transform="translate(122,69)"/>
<path d="M0 0 C3.31706967 2.09692759 6.22874044 4.45748089 8 8 C8.58493853 12.24080433 8.89498621 14.63877751 6.5078125 18.26953125 C0.93260504 24.6891166 0.93260504 24.6891166 -3.35546875 25.37890625 C-10.74766131 25.85812425 -10.74766131 25.85812425 -14.24609375 23.4609375 C-17.21747886 20.2609843 -18.82366778 17.53827732 -20.1875 13.375 C-19.94836971 9.07065486 -18.76477208 7.2740722 -16 4 C-10.5295191 -0.81923317 -7.08505126 -1.91862726 0 0 Z " fill="#F4F9FD" transform="translate(81,64)"/>
<path d="M0 0 C2.76375 -0.04125 5.5275 -0.0825 8.375 -0.125 C9.67896729 -0.15231201 9.67896729 -0.15231201 11.00927734 -0.18017578 C13.00703478 -0.19473738 15.00467217 -0.09956726 17 0 C19 2 19 2 19 5 C19.86625 3.7625 19.86625 3.7625 20.75 2.5 C23.55114364 -0.30916984 26.04819699 -0.48005703 29.9375 -0.625 C33.83831592 -0.46166534 36.57534815 -0.18231285 39.6875 2.25 C42.71985705 5.85604623 43.13258206 8.49916786 43.09765625 13.109375 C43.09443359 13.86347656 43.09121094 14.61757812 43.08789062 15.39453125 C43.07532227 16.56048828 43.07532227 16.56048828 43.0625 17.75 C43.05798828 18.54277344 43.05347656 19.33554688 43.04882812 20.15234375 C43.03708565 22.10159508 43.01915146 24.05080738 43 26 C41.02 26 39.04 26 37 26 C36.95101562 24.73542969 36.90203125 23.47085938 36.8515625 22.16796875 C36.7765262 20.50779053 36.70097873 18.84763536 36.625 17.1875 C36.5940625 16.35412109 36.563125 15.52074219 36.53125 14.66210938 C36.47324219 13.45844727 36.47324219 13.45844727 36.4140625 12.23046875 C36.3826416 11.49207764 36.3512207 10.75368652 36.31884766 9.99291992 C36.09165386 7.68650412 36.09165386 7.68650412 34 5 C31.04253508 4.41654524 31.04253508 4.41654524 28 5 C25.29221957 7.43186916 24.7794069 9.61781579 24.48828125 13.109375 C24.41559302 14.65565179 24.35740601 16.20266715 24.3125 17.75 C24.27833984 18.54277344 24.24417969 19.33554688 24.20898438 20.15234375 C24.12680896 22.10107504 24.06171955 24.05051362 24 26 C22.35 26 20.7 26 19 26 C19 19.73 19 13.46 19 7 C15.10402133 5.52565835 15.10402133 5.52565835 7 6 C6.67 12.6 6.34 19.2 6 26 C4.02 26 2.04 26 0 26 C0 17.42 0 8.84 0 0 Z " fill="#144DAE" transform="translate(138,69)"/>
<path d="M0 0 C0.18266737 5.65638951 -0.3276502 10.42965932 -1.8125 15.875 C-1.99337158 16.56537354 -2.17424316 17.25574707 -2.3605957 17.96704102 C-6.46046689 33.46046689 -6.46046689 33.46046689 -8 35 C-13.82597058 35.47558944 -17.72808443 34.21975392 -23 32 C-23 30.35 -23 28.7 -23 27 C-23.66 26.67 -24.32 26.34 -25 26 C-23.39536551 26.31008884 -21.79130769 26.62316287 -20.1875 26.9375 C-19.29417969 27.11152344 -18.40085937 27.28554687 -17.48046875 27.46484375 C-15 28 -15 28 -12 29 C-10.68 22.73 -9.36 16.46 -8 10 C-14.4687024 13.48888931 -14.4687024 13.48888931 -17.9375 16.25 C-21.97643841 18.55796481 -24.41166657 18.31643679 -29 18 C-27.50704608 13.58125718 -24.10632801 11.84929163 -20.3125 9.5625 C-19.03669561 8.77516031 -17.76194234 7.98611466 -16.48828125 7.1953125 C-15.5768335 6.63118652 -15.5768335 6.63118652 -14.64697266 6.05566406 C-12.67418525 4.79116173 -10.83788601 3.38955441 -9 1.9375 C-5.65922342 -0.22008488 -3.90060534 -0.47568358 0 0 Z " fill="#1238B8" transform="translate(52,47)"/>
<path d="M0 0 C0.91007812 0.00902344 1.82015625 0.01804688 2.7578125 0.02734375 C3.80582031 0.04474609 3.80582031 0.04474609 4.875 0.0625 C4.875 0.3925 4.875 0.7225 4.875 1.0625 C4.16472656 1.19527344 3.45445313 1.32804687 2.72265625 1.46484375 C1.80355469 1.64144531 0.88445312 1.81804688 -0.0625 2 C-0.97902344 2.17402344 -1.89554688 2.34804688 -2.83984375 2.52734375 C-5.07789844 2.83964988 -5.07789844 2.83964988 -6.125 4.0625 C-5.135 4.7225 -4.145 5.3825 -3.125 6.0625 C-4.0325 6.59875 -4.94 7.135 -5.875 7.6875 C-9.27555888 9.98954105 -11.29332507 12.32588315 -13.125 16.0625 C-13.28534617 20.4720197 -12.22431502 23.43238299 -9.75 27 C-6.93405877 30.00593245 -4.77248037 30.61583657 -0.6875 30.8125 C4.87869804 30.47791979 7.76137573 28.71905491 11.875 25.0625 C10.5749735 27.96255911 9.44155087 30.14846207 6.875 32.0625 C3.73828125 32.35546875 3.73828125 32.35546875 0.1875 32.25 C-1.58173828 32.20939453 -1.58173828 32.20939453 -3.38671875 32.16796875 C-4.29035156 32.13316406 -5.19398437 32.09835938 -6.125 32.0625 C-6.125 32.7225 -6.125 33.3825 -6.125 34.0625 C1.465 34.3925 9.055 34.7225 16.875 35.0625 C16.875 32.4225 16.875 29.7825 16.875 27.0625 C17.205 27.0625 17.535 27.0625 17.875 27.0625 C18.535 30.3625 19.195 33.6625 19.875 37.0625 C16.37452346 37.14397661 12.87597261 37.20323128 9.375 37.25 C8.39273438 37.27513672 7.41046875 37.30027344 6.3984375 37.32617188 C-1.18270369 37.40198329 -7.23315663 36.39788091 -13.5 31.8125 C-17.3894636 27.73782385 -17.93867011 24.11212884 -18.4375 18.625 C-17.97352664 13.33570374 -17.19210516 9.01547052 -13.21484375 5.2578125 C-8.67162242 1.8112308 -5.76726599 -0.07393931 0 0 Z " fill="#185EDA" transform="translate(75.125,57.9375)"/>
<path d="M0 0 C2.76375 -0.04125 5.5275 -0.0825 8.375 -0.125 C9.67896729 -0.15231201 9.67896729 -0.15231201 11.00927734 -0.18017578 C13.00703478 -0.19473738 15.00467217 -0.09956726 17 0 C19 2 19 2 19 5 C19.66 5.33 20.32 5.66 21 6 C19.0625 6.5625 19.0625 6.5625 17 7 C16.67 6.67 16.34 6.34 16 6 C13.03 6 10.06 6 7 6 C6.67 12.6 6.34 19.2 6 26 C4.02 26 2.04 26 0 26 C0 17.42 0 8.84 0 0 Z " fill="#055EC8" transform="translate(138,69)"/>
<path d="M0 0 C1.33804687 0.04060547 1.33804687 0.04060547 2.703125 0.08203125 C3.37859375 0.11683594 4.0540625 0.15164062 4.75 0.1875 C4.75 1.8375 4.75 3.4875 4.75 5.1875 C2.44 5.1875 0.13 5.1875 -2.25 5.1875 C-2.58 6.1775 -2.91 7.1675 -3.25 8.1875 C-2.61191406 8.53683594 -1.97382813 8.88617188 -1.31640625 9.24609375 C-0.49011719 9.70113281 0.33617187 10.15617187 1.1875 10.625 C2.01121094 11.07746094 2.83492188 11.52992187 3.68359375 11.99609375 C5.75 13.1875 5.75 13.1875 6.75 14.1875 C6.76953125 16.18359375 6.76953125 16.18359375 6.5625 18.625 C6.50707031 19.42808594 6.45164062 20.23117188 6.39453125 21.05859375 C5.75 23.1875 5.75 23.1875 4.02734375 24.46484375 C1.3937727 25.30053954 -0.74185588 25.38508274 -3.5 25.3125 C-4.39203125 25.29445313 -5.2840625 25.27640625 -6.203125 25.2578125 C-6.87859375 25.23460938 -7.5540625 25.21140625 -8.25 25.1875 C-8.25 23.5375 -8.25 21.8875 -8.25 20.1875 C-4.95 20.1875 -1.65 20.1875 1.75 20.1875 C1.42 18.8675 1.09 17.5475 0.75 16.1875 C-1.30353607 14.91022421 -1.30353607 14.91022421 -3.75 13.9375 C-8.01982633 11.77890317 -8.01982633 11.77890317 -9.06640625 9.08984375 C-9.3125 6.875 -9.3125 6.875 -9.25 3.1875 C-6.10408067 0.38704377 -4.182936 -0.16511589 0 0 Z " fill="#2C5EBB" transform="translate(268.25,68.8125)"/>
<path d="M0 0 C3.64931451 2.07347415 4.78963856 3.36891567 6.125 7.375 C6.00293223 10.9149654 5.90287183 11.74703953 3.9375 14.4375 C1 17 1 17 -1.9375 17.6875 C-6.12345701 16.74779536 -8.12059325 15.15363597 -11 12 C-11.625 9 -11.625 9 -11 6 C-7.87998678 1.31998016 -5.70959142 -0.66390598 0 0 Z " fill="#EEF6FB" transform="translate(205,73)"/>
<path d="M0 0 C3.03622233 0.96900713 4.76716164 1.60639584 6.9375 3.9375 C7.9375 6.75 7.9375 6.75 7.9375 9.9375 C4.92451299 15.44399351 4.92451299 15.44399351 1.9375 16.9375 C-0.875 17.375 -0.875 17.375 -4.0625 16.9375 C-6.50076648 14.81050158 -7.72417426 13.73026192 -9.0625 10.9375 C-9.21282977 6.57793659 -8.75277928 4.72639061 -5.875 1.4375 C-3.0625 -0.0625 -3.0625 -0.0625 0 0 Z " fill="#E9F4FB" transform="translate(117.0625,73.0625)"/>
<path d="M0 0 C0.86625 0.0103125 1.7325 0.020625 2.625 0.03125 C3.924375 0.01578125 3.924375 0.01578125 5.25 0 C7.625 0.53125 7.625 0.53125 9.4140625 2.37890625 C11.06850771 5.31954919 11.03293863 7.1997512 10.625 10.53125 C9.75 13.40625 9.75 13.40625 7.625 15.53125 C4.16700978 16.25312001 1.08299022 16.25312001 -2.375 15.53125 C-5.0356109 12.8706391 -5.29773905 11.16221442 -5.75 7.46875 C-5.23856652 3.46252105 -4.14193736 0.92648599 0 0 Z " fill="#EBF6FC" transform="translate(234.375,73.46875)"/>
<path d="M0 0 C1.51400391 0.01740234 1.51400391 0.01740234 3.05859375 0.03515625 C4.07050781 0.04417969 5.08242188 0.05320312 6.125 0.0625 C7.29869141 0.07990234 7.29869141 0.07990234 8.49609375 0.09765625 C8.49609375 0.75765625 8.49609375 1.41765625 8.49609375 2.09765625 C9.15609375 2.09765625 9.81609375 2.09765625 10.49609375 2.09765625 C10.49609375 1.43765625 10.49609375 0.77765625 10.49609375 0.09765625 C11.81609375 0.09765625 13.13609375 0.09765625 14.49609375 0.09765625 C13.67422114 4.48097682 12.59455093 8.77705802 11.49609375 13.09765625 C9.18365583 13.12451037 6.87113105 13.14398466 4.55859375 13.16015625 C3.27082031 13.17175781 1.98304688 13.18335937 0.65625 13.1953125 C-2.50390625 13.09765625 -2.50390625 13.09765625 -3.50390625 12.09765625 C-3.60241796 10.26649742 -3.63363254 8.43145692 -3.62890625 6.59765625 C-3.63148438 5.59734375 -3.6340625 4.59703125 -3.63671875 3.56640625 C-3.4566415 0.21908801 -3.35465579 0.13083681 0 0 Z " fill="#B4D0ED" transform="translate(306.50390625,100.90234375)"/>
<path d="M0 0 C1.21236328 0.04060547 1.21236328 0.04060547 2.44921875 0.08203125 C3.06410156 0.11683594 3.67898438 0.15164062 4.3125 0.1875 C4.3125 1.8375 4.3125 3.4875 4.3125 5.1875 C2.0025 5.1875 -0.3075 5.1875 -2.6875 5.1875 C-2.6875 6.5075 -2.6875 7.8275 -2.6875 9.1875 C-1.945 9.27 -1.2025 9.3525 -0.4375 9.4375 C3.06030317 10.39144632 4.27444385 11.16815756 6.3125 14.1875 C6.80191054 17.2435969 6.9629901 20.15187953 6.3125 23.1875 C2.99879 25.39664 1.9678979 25.41231553 -1.875 25.3125 C-2.77605469 25.29445313 -3.67710937 25.27640625 -4.60546875 25.2578125 C-5.29253906 25.23460938 -5.97960937 25.21140625 -6.6875 25.1875 C-6.6875 23.5375 -6.6875 21.8875 -6.6875 20.1875 C-4.0475 20.1875 -1.4075 20.1875 1.3125 20.1875 C1.28156827 17.77164426 1.28156827 17.77164426 0.3125 15.1875 C-2.5875525 13.44579702 -2.5875525 13.44579702 -5.6875 12.1875 C-7.6875 10.1875 -7.6875 10.1875 -8 6.75 C-7.6875 3.1875 -7.6875 3.1875 -6.4609375 1.4765625 C-4.16445154 -0.19268941 -2.80776158 -0.12207659 0 0 Z " fill="#1F49A3" transform="translate(292.6875,68.8125)"/>
<path d="M0 0 C0.66 0 1.32 0 2 0 C2 0.99 2 1.98 2 3 C2.66 3 3.32 3 4 3 C3.90234375 5.88085938 3.90234375 5.88085938 3.8046875 8.76171875 C3.9389492 11.54644834 3.9389492 11.54644834 6 16 C9.96 16 13.92 16 18 16 C18 16.66 18 17.32 18 18 C18.66 18 19.32 18 20 18 C20 18.99 20 19.98 20 21 C21.32 21 22.64 21 24 21 C24 16.05 24 11.1 24 6 C24.33 6 24.66 6 25 6 C25 11.28 25 16.56 25 22 C22.10359882 22.08120751 19.20949088 22.14059421 16.3125 22.1875 C15.49587891 22.21263672 14.67925781 22.23777344 13.83789062 22.26367188 C9.050659 22.32181639 5.86361555 22.15382254 2 19 C-1.52264179 14.23967325 -2.43878107 10.89827727 -2.3359375 5.015625 C-2 3 -2 3 0 0 Z " fill="#3368CC" transform="translate(226,73)"/>
<path d="M0 0 C8.38111298 -0.91062395 8.38111298 -0.91062395 12.1875 1.23046875 C15.13584732 3.7181368 16.76184807 5.28554421 18 9 C18.03954234 11.33299825 18.04401732 13.66708189 18 16 C17.34 16 16.68 16 16 16 C15.9175 16.7425 15.835 17.485 15.75 18.25 C14.82469988 21.6427671 13.83491939 22.93127504 11 25 C7.75 25.25 7.75 25.25 5 25 C5.1875 23.25 5.1875 23.25 6 21 C6.825 20.401875 7.65 19.80375 8.5 19.1875 C11.28145907 17.12923208 11.28145907 17.12923208 12.125 13.5625 C12.33511455 9.91862526 12.33511455 9.91862526 10 7.3125 C6.76944599 4.82228128 3.60089071 2.90635391 0 1 C0 0.67 0 0.34 0 0 Z " fill="#093183" transform="translate(198,69)"/>
<path d="M0 0 C0.66 0.33 1.32 0.66 2 1 C2 1.99 2 2.98 2 4 C2.66 4 3.32 4 4 4 C3.67 8.95 3.34 13.9 3 19 C-0.27088814 19.02693321 -3.54155522 19.04680664 -6.8125 19.0625 C-7.74126953 19.07087891 -8.67003906 19.07925781 -9.62695312 19.08789062 C-10.51962891 19.09111328 -11.41230469 19.09433594 -12.33203125 19.09765625 C-13.56530151 19.10551147 -13.56530151 19.10551147 -14.82348633 19.11352539 C-17 19 -17 19 -20 18 C-20 17.34 -20 16.68 -20 16 C-18.41058594 15.96132812 -18.41058594 15.96132812 -16.7890625 15.921875 C-15.40099999 15.8656022 -14.01298075 15.80825467 -12.625 15.75 C-11.92632812 15.73582031 -11.22765625 15.72164062 -10.5078125 15.70703125 C-8.22282354 15.63964218 -8.22282354 15.63964218 -5 15 C-3.47942391 13.18900151 -3.47942391 13.18900151 -3 11 C-2.649375 10.21625 -2.29875 9.4325 -1.9375 8.625 C-0.91490304 5.76172851 -0.41945441 3.00608997 0 0 Z " fill="#0C5CF6" transform="translate(89,74)"/>
<path d="M0 0 C0.33 0.66 0.66 1.32 1 2 C0.0625 4.125 0.0625 4.125 -1 6 C-0.01 6 0.98 6 2 6 C2.33 5.34 2.66 4.68 3 4 C2.9175 5.216875 2.835 6.43375 2.75 7.6875 C2.77232753 10.83009935 3.04285631 12.08571261 4.5 15 C8.11847689 17.89478151 10.45281278 17.37893227 15 17 C15.33 18.65 15.66 20.3 16 22 C12.34711807 23.21762731 9.84245864 23.39075851 6 23 C1.96088268 20.28136334 -1.14309255 17.53910711 -3 13 C-3.55619719 8.69719677 -3.72426968 5.23729403 -1.5 1.4375 C-0.7575 0.7259375 -0.7575 0.7259375 0 0 Z " fill="#1856C7" transform="translate(106,72)"/>
<path d="M0 0 C4.0284349 -0.18311068 6.48375245 0.05841983 10 2 C10.02712066 3.43739513 10.04645067 4.87493863 10.0625 6.3125 C10.07410156 7.11300781 10.08570313 7.91351563 10.09765625 8.73828125 C10 11 10 11 9 14 C7.52093108 14.02689216 6.04172517 14.04634621 4.5625 14.0625 C3.32693359 14.07990234 3.32693359 14.07990234 2.06640625 14.09765625 C0 14 0 14 -1 13 C-1.15088074 8.47357775 -1.10424872 4.41699488 0 0 Z " fill="#344D84" transform="translate(289,100)"/>
<path d="M0 0 C0.33 0 0.66 0 1 0 C1 10.56 1 21.12 1 32 C2.32 32 3.64 32 5 32 C4.86040799 28.77053202 4.71221895 25.54151309 4.5625 22.3125 C4.52318359 21.40048828 4.48386719 20.48847656 4.44335938 19.54882812 C4.38051758 18.21948242 4.38051758 18.21948242 4.31640625 16.86328125 C4.27974854 16.05157471 4.24309082 15.23986816 4.20532227 14.40356445 C4.04965943 11.95062229 4.04965943 11.95062229 3.42163086 9.40307617 C2.85416087 6.16879296 3.81123193 4.00688395 5 1 C5.226875 1.5775 5.45375 2.155 5.6875 2.75 C7.36505259 5.62580443 9.27100914 7.11569679 12 9 C12.721875 9.144375 13.44375 9.28875 14.1875 9.4375 C14.785625 9.623125 15.38375 9.80875 16 10 C17.25 12.5625 17.25 12.5625 18 15 C16.741875 15.04125 15.48375 15.0825 14.1875 15.125 C13.47980469 15.14820312 12.77210938 15.17140625 12.04296875 15.1953125 C10 15 10 15 7 13 C6.67 19.6 6.34 26.2 6 33 C4.02 33 2.04 33 0 33 C0 22.11 0 11.22 0 0 Z " fill="#578CDB" transform="translate(188,80)"/>
<path d="M0 0 C1.9375 0.75 1.9375 0.75 4 2 C4.93393171 4.73113703 5.11940119 7.23904309 5.09765625 10.109375 C5.09282227 11.24052734 5.09282227 11.24052734 5.08789062 12.39453125 C5.07951172 13.17183594 5.07113281 13.94914062 5.0625 14.75 C5.05798828 15.54277344 5.05347656 16.33554688 5.04882812 17.15234375 C5.03708565 19.10159508 5.01915146 21.05080738 5 23 C3.02 23 1.04 23 -1 23 C-1.22655901 19.91772291 -1.42803465 16.8342984 -1.625 13.75 C-1.68945312 12.87730469 -1.75390625 12.00460938 -1.8203125 11.10546875 C-1.871875 10.26113281 -1.9234375 9.41679688 -1.9765625 8.546875 C-2.02893066 7.77182617 -2.08129883 6.99677734 -2.13525391 6.19824219 C-1.9810467 3.69195763 -1.25581508 2.15160127 0 0 Z " fill="#0B5BD0" transform="translate(176,72)"/>
<path d="M0 0 C-0.60797734 3.57494467 -0.97907605 3.98241731 -3.984375 6.5078125 C-5.2316469 7.39151791 -6.48724403 8.26356526 -7.75 9.125 C-8.37132812 9.56714844 -8.99265625 10.00929688 -9.6328125 10.46484375 C-12.97236535 12.79689437 -16.11124771 14.67901163 -20 16 C-20 15.01 -20 14.02 -20 13 C-19.360625 12.87625 -18.72125 12.7525 -18.0625 12.625 C-17.381875 12.41875 -16.70125 12.2125 -16 12 C-15.67 11.34 -15.34 10.68 -15 10 C-16.32 10 -17.64 10 -19 10 C-17.73664091 6.20992274 -16.46740258 5.81926288 -13.0625 3.875 C-12.16660156 3.35679688 -11.27070313 2.83859375 -10.34765625 2.3046875 C-6.55848731 0.19889311 -4.36946834 -0.09498844 0 0 Z " fill="#2973E1" transform="translate(35,87)"/>
<path d="M0 0 C0.33 0 0.66 0 1 0 C1.02698189 1.62490954 1.04638757 3.24994633 1.0625 4.875 C1.07410156 5.77992187 1.08570312 6.68484375 1.09765625 7.6171875 C1 10 1 10 0 12 C0.60760482 14.3494053 1.27129528 16.68529088 2 19 C1 20 1 20 -2.0625 20.25 C-6.66649932 19.95768258 -9.76939541 18.7813072 -14 17 C-14 15.35 -14 13.7 -14 12 C-14.66 11.67 -15.32 11.34 -16 11 C-14.39536551 11.31008884 -12.79130769 11.62316287 -11.1875 11.9375 C-9.84751953 12.19853516 -9.84751953 12.19853516 -8.48046875 12.46484375 C-6 13 -6 13 -3 14 C-2.01 9.38 -1.02 4.76 0 0 Z " fill="#195DDA" transform="translate(43,62)"/>
<path d="M0 0 C0.95390625 -0.01417969 1.9078125 -0.02835937 2.890625 -0.04296875 C5.91408001 0.20072503 8.0552204 0.80888726 10.75 2.1875 C11.5625 4.3125 11.5625 4.3125 11.75 6.1875 C8.17619658 7.37876781 6.24116698 6.9224445 2.5625 6.25 C1.47582031 6.05535156 0.38914062 5.86070313 -0.73046875 5.66015625 C-1.56191406 5.50417969 -2.39335937 5.34820312 -3.25 5.1875 C-3.58 6.8375 -3.91 8.4875 -4.25 10.1875 C-5.24 10.5175 -6.23 10.8475 -7.25 11.1875 C-7.10957123 9.54119672 -6.96250671 7.89545821 -6.8125 6.25 C-6.73128906 5.33347656 -6.65007813 4.41695313 -6.56640625 3.47265625 C-5.97839105 -0.7741202 -3.85184307 0.02574761 0 0 Z " fill="#0869FB" transform="translate(18.25,71.8125)"/>
<path d="M0 0 C0 3 0 3 -1.578125 5.171875 C-4.79218011 7.59796821 -6.77115308 7.40915388 -10.75 7.25 C-11.92046875 7.21390625 -13.0909375 7.1778125 -14.296875 7.140625 C-15.18890625 7.09421875 -16.0809375 7.0478125 -17 7 C-17 7.66 -17 8.32 -17 9 C-9.41 9.33 -1.82 9.66 6 10 C6 7.36 6 4.72 6 2 C6.33 2 6.66 2 7 2 C7.66 5.3 8.32 8.6 9 12 C5.43729627 12.05402584 1.87541477 12.0936875 -1.6875 12.125 C-3.19860352 12.15013672 -3.19860352 12.15013672 -4.74023438 12.17578125 C-5.71669922 12.18222656 -6.69316406 12.18867187 -7.69921875 12.1953125 C-8.59471436 12.20578613 -9.49020996 12.21625977 -10.4128418 12.22705078 C-13.32385603 11.97157817 -15.4151537 11.36157677 -18 10 C-18.33 9.01 -18.66 8.02 -19 7 C-19.66 6.34 -20.32 5.68 -21 5 C-19.98679687 5.05800781 -18.97359375 5.11601563 -17.9296875 5.17578125 C-9.46077783 5.87102575 -9.46077783 5.87102575 -2.0625 2.5 C-1.381875 1.675 -0.70125 0.85 0 0 Z " fill="#2566E5" transform="translate(86,83)"/>
<path d="M0 0 C1.23556641 0.01740234 1.23556641 0.01740234 2.49609375 0.03515625 C3.32238281 0.04417969 4.14867187 0.05320312 5 0.0625 C5.63808594 0.07410156 6.27617187 0.08570312 6.93359375 0.09765625 C6.43859375 0.55140625 5.94359375 1.00515625 5.43359375 1.47265625 C3.70750038 2.97401144 3.70750038 2.97401144 3.93359375 5.09765625 C3.02609375 5.42765625 2.11859375 5.75765625 1.18359375 6.09765625 C-3.04708492 8.70115082 -4.25186713 11.60400348 -6.06640625 16.09765625 C-6.39640625 16.09765625 -6.72640625 16.09765625 -7.06640625 16.09765625 C-7.39640625 14.44765625 -7.72640625 12.79765625 -8.06640625 11.09765625 C-8.39640625 14.72765625 -8.72640625 18.35765625 -9.06640625 22.09765625 C-9.39640625 22.09765625 -9.72640625 22.09765625 -10.06640625 22.09765625 C-11.13852531 10.93400377 -11.13852531 10.93400377 -8.54296875 6.48828125 C-6.80603763 4.5457542 -5.04692356 2.7884576 -3.06640625 1.09765625 C-2.06640625 0.09765625 -2.06640625 0.09765625 0 0 Z " fill="#2D65C0" transform="translate(199.06640625,67.90234375)"/>
<path d="M0 0 C2.36810318 0.94724127 3.75207953 1.65291134 5.25 3.75 C6.52070823 7.56212469 6.75249104 10.422663 4.984375 14.12890625 C1.62021375 19.79326208 1.62021375 19.79326208 -2 21 C-2.6875 18.8125 -2.6875 18.8125 -3 16 C-2.00664799 14.32936253 -1.00568242 12.66324401 0 11 C0.89841472 7.12463483 1.27900121 3.83700364 0 0 Z " fill="#1A4497" transform="translate(124,72)"/>
<path d="M0 0 C0.66 0 1.32 0 2 0 C2 2.64 2 5.28 2 8 C2.66 8 3.32 8 4 8 C4.83507667 10.92276836 5.05450569 12.76017496 4.375 15.75 C3 18 3 18 0.4375 18.875 C-0.366875 18.91625 -1.17125 18.9575 -2 19 C-2.33 18.67 -2.66 18.34 -3 18 C-2.86004648 11.7774513 -1.96503551 5.89510652 0 0 Z " fill="#1077FB" transform="translate(8,88)"/>
<path d="M0 0 C1.67542976 0.28604898 3.34385343 0.61781233 5 1 C6.59789351 5.95346987 5.28306814 10.13282415 4 15 C2.35 15.33 0.7 15.66 -1 16 C-1.02685095 13.52076199 -1.04676547 11.0418116 -1.0625 8.5625 C-1.07506836 7.50192383 -1.07506836 7.50192383 -1.08789062 6.41992188 C-1.09653588 4.61306441 -1.05220011 2.80612397 -1 1 C-0.67 0.67 -0.34 0.34 0 0 Z " fill="#3D71C2" transform="translate(269,98)"/>
<path d="M0 0 C0.66 0 1.32 0 2 0 C2 0.99 2 1.98 2 3 C2.66 3 3.32 3 4 3 C3.95875 4.216875 3.9175 5.43375 3.875 6.6875 C3.86245492 10.21894127 4.40001783 12.80003566 6 16 C8.64 16 11.28 16 14 16 C14 16.33 14 16.66 14 17 C12.22925083 17.02705729 10.45838289 17.04642195 8.6875 17.0625 C7.70136719 17.07410156 6.71523437 17.08570312 5.69921875 17.09765625 C3 17 3 17 0 16 C-1.88370033 13.1430545 -2.27290842 10.82221846 -2.25 7.4375 C-2.25773438 6.29087891 -2.25773438 6.29087891 -2.265625 5.12109375 C-2 3 -2 3 0 0 Z " fill="#396AC2" transform="translate(226,73)"/>
<path d="M0 0 C1.051875 0.01933594 2.10375 0.03867188 3.1875 0.05859375 C4.239375 0.05988281 5.29125 0.06117187 6.375 0.0625 C9.4325528 0.53387272 10.34378782 1.08262329 12.1875 3.49609375 C11.5275 4.81609375 10.8675 6.13609375 10.1875 7.49609375 C9.1975 6.83609375 8.2075 6.17609375 7.1875 5.49609375 C4.22980823 4.99598851 4.22980823 4.99598851 1.1875 5.49609375 C-1.18969693 7.37111306 -1.18969693 7.37111306 -2.8125 9.49609375 C-3.1425 8.50609375 -3.4725 7.51609375 -3.8125 6.49609375 C-4.4725 5.83609375 -5.1325 5.17609375 -5.8125 4.49609375 C-4.12798798 1.54234871 -3.42437746 0.60402214 0 0 Z " fill="#204DAD" transform="translate(164.8125,68.50390625)"/>
<path d="M0 0 C1.32 0.33 2.64 0.66 4 1 C4 6.28 4 11.56 4 17 C2.68 17 1.36 17 0 17 C0 16.01 0 15.02 0 14 C-0.66 13.67 -1.32 13.34 -2 13 C-1.855625 12.34 -1.71125 11.68 -1.5625 11 C-0.87700084 7.34400449 -0.43824485 3.69377805 0 0 Z " fill="#084DD4" transform="translate(246,77)"/>
<path d="M0 0 C0 0.33 0 0.66 0 1 C-0.71027344 1.13277344 -1.42054687 1.26554687 -2.15234375 1.40234375 C-3.07144531 1.57894531 -3.99054688 1.75554688 -4.9375 1.9375 C-5.85402344 2.11152344 -6.77054688 2.28554688 -7.71484375 2.46484375 C-9.95289844 2.77714988 -9.95289844 2.77714988 -11 4 C-10.01 4.66 -9.02 5.32 -8 6 C-12.5 9 -12.5 9 -17 12 C-17.66 11.01 -18.32 10.02 -19 9 C-19.99 9.495 -19.99 9.495 -21 10 C-17.29382886 1.12063165 -8.81665471 -0.99394437 0 0 Z " fill="#3168CA" transform="translate(80,58)"/>
<path d="M0 0 C1.32 0 2.64 0 4 0 C3.67 4.95 3.34 9.9 3 15 C1.68 15 0.36 15 -1 15 C-1.02715383 13.25008666 -1.04646551 11.50005055 -1.0625 9.75 C-1.07410156 8.77546875 -1.08570313 7.8009375 -1.09765625 6.796875 C-1.01195577 4.34241322 -0.70706066 2.33831086 0 0 Z " fill="#2F4C94" transform="translate(280,99)"/>
<path d="M0 0 C0.33 0 0.66 0 1 0 C1.71413279 8.02124152 2.14525497 15.94641862 2 24 C2.99 24 3.98 24 5 24 C5 18.72 5 13.44 5 8 C5.33 8 5.66 8 6 8 C6 13.94 6 19.88 6 26 C4.02 26 2.04 26 0 26 C0 17.42 0 8.84 0 0 Z " fill="#558FD9" transform="translate(138,69)"/>
<path d="M0 0 C0.99 0.33 1.98 0.66 3 1 C3 1.99 3 2.98 3 4 C-2.8685408 5.14819277 -8.0885256 4.77313045 -14 4 C-10.40947043 -1.22258846 -5.75764283 -0.58633758 0 0 Z " fill="#0947CE" transform="translate(82,59)"/>
<path d="M0 0 C1.23556641 0.01740234 1.23556641 0.01740234 2.49609375 0.03515625 C3.32238281 0.04417969 4.14867187 0.05320312 5 0.0625 C5.63808594 0.07410156 6.27617187 0.08570312 6.93359375 0.09765625 C6.93359375 1.74765625 6.93359375 3.39765625 6.93359375 5.09765625 C4.62359375 5.09765625 2.31359375 5.09765625 -0.06640625 5.09765625 C-0.39640625 6.41765625 -0.72640625 7.73765625 -1.06640625 9.09765625 C-2.38640625 7.77765625 -3.70640625 6.45765625 -5.06640625 5.09765625 C-2.6606399 0.12573913 -2.6606399 0.12573913 0 0 Z " fill="#1B4499" transform="translate(290.06640625,68.90234375)"/>
<path d="M0 0 C1.2065625 0.0309375 1.2065625 0.0309375 2.4375 0.0625 C2.49149736 1.52042884 2.53029177 2.97892712 2.5625 4.4375 C2.58570313 5.24960938 2.60890625 6.06171875 2.6328125 6.8984375 C2.4375 9.0625 2.4375 9.0625 0.4375 11.0625 C-0.5525 11.0625 -1.5425 11.0625 -2.5625 11.0625 C-4.18901522 7.80946956 -3.67703156 4.67024398 -3.5625 1.0625 C-2.5625 0.0625 -2.5625 0.0625 0 0 Z " fill="#CEE5F6" transform="translate(293.5625,101.9375)"/>
<path d="M0 0 C2.62527189 -0.05382106 5.24944713 -0.09358313 7.875 -0.125 C8.62136719 -0.14175781 9.36773437 -0.15851563 10.13671875 -0.17578125 C12.09194461 -0.1933959 14.04742021 -0.10320189 16 0 C18 2 18 2 18 5 C18.66 5.33 19.32 5.66 20 6 C18.0625 6.5625 18.0625 6.5625 16 7 C15.67 6.67 15.34 6.34 15 6 C13.48530552 5.76807135 11.96245438 5.58784762 10.4375 5.4375 C9.61121094 5.35371094 8.78492188 5.26992187 7.93359375 5.18359375 C7.29550781 5.12300781 6.65742188 5.06242187 6 5 C6.99 4.01 7.98 3.02 9 2 C6.03 1.67 3.06 1.34 0 1 C0 0.67 0 0.34 0 0 Z " fill="#2A65C2" transform="translate(139,69)"/>
<path d="M0 0 C0.66 0.33 1.32 0.66 2 1 C1.67 5.62 1.34 10.24 1 15 C-0.65 14.67 -2.3 14.34 -4 14 C-4.31549088 8.7418187 -3.70016294 5.53627373 -1 1 C-0.67 0.67 -0.34 0.34 0 0 Z " fill="#1659C9" transform="translate(61,66)"/>
<path d="M0 0 C1.9375 0.75 1.9375 0.75 4 2 C4.93393171 4.73113703 5.11940119 7.23904309 5.09765625 10.109375 C5.09282227 11.24052734 5.09282227 11.24052734 5.08789062 12.39453125 C5.07951172 13.17183594 5.07113281 13.94914062 5.0625 14.75 C5.05798828 15.54277344 5.05347656 16.33554688 5.04882812 17.15234375 C5.03708565 19.10159508 5.01915146 21.05080738 5 23 C3.02 23 1.04 23 -1 23 C-1 18.05 -1 13.1 -1 8 C-0.67 8 -0.34 8 0 8 C0 12.62 0 17.24 0 22 C1.32 22 2.64 22 4 22 C3.71954112 19.01937854 3.42622495 16.04103028 3.125 13.0625 C3.04636719 12.21236328 2.96773437 11.36222656 2.88671875 10.48632812 C2.80292969 9.67744141 2.71914062 8.86855469 2.6328125 8.03515625 C2.52283936 6.91185913 2.52283936 6.91185913 2.41064453 5.76586914 C2.20737549 4.89176392 2.20737549 4.89176392 2 4 C1.34 3.67 0.68 3.34 0 3 C0 2.01 0 1.02 0 0 Z " fill="#2D62C9" transform="translate(176,72)"/>
<path d="M0 0 C0.78503906 0.00515625 1.57007813 0.0103125 2.37890625 0.015625 C3.55259766 0.00789063 3.55259766 0.00789063 4.75 0 C6.94140625 0.265625 6.94140625 0.265625 9.94140625 2.265625 C9.15894531 2.31460938 8.37648438 2.36359375 7.5703125 2.4140625 C6.55839844 2.48882812 5.54648437 2.56359375 4.50390625 2.640625 C3.49457031 2.71023437 2.48523438 2.77984375 1.4453125 2.8515625 C0.20587891 3.05652344 0.20587891 3.05652344 -1.05859375 3.265625 C-2.20674372 5.56192494 -2.36629184 7.34260586 -2.62109375 9.890625 C-2.70488281 10.70789063 -2.78867187 11.52515625 -2.875 12.3671875 C-2.93558594 12.99367188 -2.99617188 13.62015625 -3.05859375 14.265625 C-2.06859375 14.595625 -1.07859375 14.925625 -0.05859375 15.265625 C-1.70859375 15.925625 -3.35859375 16.585625 -5.05859375 17.265625 C-4.94490164 14.80628509 -4.81816724 12.3488341 -4.68359375 9.890625 C-4.65265625 9.19195312 -4.62171875 8.49328125 -4.58984375 7.7734375 C-4.17243652 0.53837891 -4.17243652 0.53837891 0 0 Z " fill="#A6CFFC" transform="translate(20.05859375,77.734375)"/>
<path d="M0 0 C0.95390625 -0.01417969 1.9078125 -0.02835937 2.890625 -0.04296875 C5.91408001 0.20072503 8.0552204 0.80888726 10.75 2.1875 C11.5625 4.3125 11.5625 4.3125 11.75 6.1875 C8.75 7.1875 8.75 7.1875 6.5625 6.25 C5.964375 5.899375 5.36625 5.54875 4.75 5.1875 C5.74 4.5275 6.73 3.8675 7.75 3.1875 C3.79 2.8575 -0.17 2.5275 -4.25 2.1875 C-4.58 3.5075 -4.91 4.8275 -5.25 6.1875 C-5.63218767 4.53135343 -5.96395102 2.86292976 -6.25 1.1875 C-4.53783874 -0.52466126 -2.33192944 0.01558776 0 0 Z " fill="#0D5FEA" transform="translate(18.25,71.8125)"/>
<path d="M0 0 C-0.34021964 3.17538332 -1.02466604 4.02276865 -3.4375 6.25 C-6 8 -6 8 -8 8 C-7.67 7.01 -7.34 6.02 -7 5 C-6.34 5 -5.68 5 -5 5 C-5 4.34 -5 3.68 -5 3 C-5.99 3 -6.98 3 -8 3 C-8 3.66 -8 4.32 -8 5 C-10.31 5.33 -12.62 5.66 -15 6 C-12.41783618 0.83567237 -5.26368901 -0.5263689 0 0 Z " fill="#3670CB" transform="translate(35,87)"/>
<path d="M0 0 C0.33 0 0.66 0 1 0 C1.02698189 1.62490954 1.04638757 3.24994633 1.0625 4.875 C1.07410156 5.77992187 1.08570313 6.68484375 1.09765625 7.6171875 C1 10 1 10 0 12 C0.28112064 14.00800456 0.61067967 16.01014051 1 18 C-1.8125 18.6875 -1.8125 18.6875 -5 19 C-6.875 17.5625 -6.875 17.5625 -8 16 C-6.35 16 -4.7 16 -3 16 C-2.87625 15.21625 -2.7525 14.4325 -2.625 13.625 C-1.83873576 9.0646674 -0.92299584 4.53432907 0 0 Z " fill="#0440D2" transform="translate(43,62)"/>
<path d="M0 0 C1.875 0.1875 1.875 0.1875 4 1 C5.25 3.5625 5.25 3.5625 6 6 C5.01 6 4.02 6 3 6 C2.95101562 6.78246094 2.90203125 7.56492187 2.8515625 8.37109375 C2.73941406 9.88896484 2.73941406 9.88896484 2.625 11.4375 C2.55539063 12.44683594 2.48578125 13.45617187 2.4140625 14.49609375 C2.27742187 15.32238281 2.14078125 16.14867188 2 17 C1.34 17.33 0.68 17.66 0 18 C-0.66 17.34 -1.32 16.68 -2 16 C-1.67 15.46375 -1.34 14.9275 -1 14.375 C0.25941162 11.3838974 0.26855835 9.22270017 0 6 C-0.89831016 3.69769234 -0.89831016 3.69769234 -2 2 C-1.34 2 -0.68 2 0 2 C0 1.34 0 0.68 0 0 Z " fill="#235BC1" transform="translate(244,72)"/>
<path d="M0 0 C0.33 0 0.66 0 1 0 C1 1.65 1 3.3 1 5 C1.66 5.33 2.32 5.66 3 6 C0.47524538 7.26237731 -1.31200466 7.09856404 -4.125 7.0625 C-5.03507812 7.05347656 -5.94515625 7.04445313 -6.8828125 7.03515625 C-7.58148438 7.02355469 -8.28015625 7.01195313 -9 7 C-9 5.35 -9 3.7 -9 2 C-6.36 2 -3.72 2 -1 2 C-0.67 1.34 -0.34 0.68 0 0 Z " fill="#1B46A8" transform="translate(295,87)"/>
<path d="M0 0 C0.33 0.99 0.66 1.98 1 3 C1.99 3.33 2.98 3.66 4 4 C1.00518135 8.22797927 1.00518135 8.22797927 -1 10 C-4.3125 10.375 -4.3125 10.375 -7 10 C-6.65652573 6.79424013 -6.0292146 6.02483241 -3.5 3.875 C-2.675 3.25625 -1.85 2.6375 -1 2 C-0.67 1.34 -0.34 0.68 0 0 Z " fill="#214B98" transform="translate(210,84)"/>
<path d="M0 0 C0 1.65 0 3.3 0 5 C-0.9075 5.103125 -1.815 5.20625 -2.75 5.3125 C-5.97085972 5.72104054 -5.97085972 5.72104054 -7.8125 7.5625 C-11.28395441 9.84374147 -14.95963191 9.23309816 -19 9 C-19 8.67 -19 8.34 -19 8 C-18.030625 7.79375 -17.06125 7.5875 -16.0625 7.375 C-11.78583234 6.19042403 -8.56742073 3.83773054 -5.015625 1.2421875 C-3 0 -3 0 0 0 Z " fill="#C9E1F9" transform="translate(44,57)"/>
<path d="M0 0 C0.66 0.33 1.32 0.66 2 1 C1.67 1.66 1.34 2.32 1 3 C2.32 2.67 3.64 2.34 5 2 C6 4 6 4 5.6875 6.0625 C5 8 5 8 3 9 C2.01 10.485 2.01 10.485 1 12 C1 10.68 1 9.36 1 8 C0.34 7.67 -0.32 7.34 -1 7 C-2.03145371 5.69084721 -3.03542166 4.35917857 -4 3 C-2.68 2.01 -1.36 1.02 0 0 Z " fill="#1A4FD6" transform="translate(43,49)"/>
<path d="M0 0 C2.3125 2 2.3125 2 4 4 C2.68 4 1.36 4 0 4 C0 3.34 0 2.68 0 2 C-2.64 2.99 -5.28 3.98 -8 5 C-8 7.97 -8 10.94 -8 14 C-8.99 13.34 -9.98 12.68 -11 12 C-11.60352743 8.12018082 -11.31967746 6.47951619 -9.125 3.1875 C-6.11716208 0.09119626 -4.27686164 -0.5091502 0 0 Z " fill="#C8E3F7" transform="translate(205,73)"/>
<path d="M0 0 C0.33 0 0.66 0 1 0 C2.25581395 8.37209302 2.25581395 8.37209302 1 12 C1 12.66 1 13.32 1 14 C0.34 14 -0.32 14 -1 14 C-1 19.61 -1 25.22 -1 31 C-1.33 31 -1.66 31 -2 31 C-2.21409066 8.04472359 -2.21409066 8.04472359 -1 1 C-0.67 0.67 -0.34 0.34 0 0 Z " fill="#115ECD" transform="translate(191,78)"/>
<path d="M0 0 C0.66 0.33 1.32 0.66 2 1 C2 1.99 2 2.98 2 4 C2.66 4 3.32 4 4 4 C4.08159574 8.16138263 3.98248524 11.9472484 3 16 C2.67 16 2.34 16 2 16 C2 14.35 2 12.7 2 11 C1.34 11 0.68 11 0 11 C0 10.34 0 9.68 0 9 C-0.66 9 -1.32 9 -2 9 C-1.34 6.03 -0.68 3.06 0 0 Z " fill="#0B55D6" transform="translate(89,74)"/>
<path d="M0 0 C1.98 0 3.96 0 6 0 C6.21221057 5.8888434 5.55320433 10.83290313 4 16.5 C3.80921875 17.22703125 3.6184375 17.9540625 3.421875 18.703125 C2.95662755 20.47106531 2.47956407 22.23588933 2 24 C0.95550089 20.86650268 1.06576355 20.01031744 2 17 C1.34 16.67 0.68 16.34 0 16 C0.99 15.67 1.98 15.34 3 15 C2.95875 13.80375 2.9175 12.6075 2.875 11.375 C2.86148292 7.57670047 3.57990247 4.55024382 5 1 C3.02 1.33 1.04 1.66 -1 2 C-0.67 1.34 -0.34 0.68 0 0 Z " fill="#4660B6" transform="translate(46,47)"/>
<path d="M0 0 C1.73883423 5.21650268 2.4670898 9.48834035 2 15 C1.01 15.66 0.02 16.32 -1 17 C-0.70703125 14.98177083 -0.4140625 12.96354167 -0.12109375 10.9453125 C0.1684297 8.91859333 0.1684297 8.91859333 -1 7 C-1.99 6.34 -2.98 5.68 -4 5 C-3.67 4.34 -3.34 3.68 -3 3 C-5.64 3 -8.28 3 -11 3 C-11 2.67 -11 2.34 -11 2 C-9.35440244 1.66550467 -7.70851502 1.33243501 -6.0625 1 C-5.14597656 0.814375 -4.22945313 0.62875 -3.28515625 0.4375 C-1 0 -1 0 0 0 Z " fill="#CADDF7" transform="translate(274,92)"/>
<path d="M0 0 C0.33 0.66 0.66 1.32 1 2 C0.0625 4.125 0.0625 4.125 -1 6 C-0.01 6 0.98 6 2 6 C2.33 5.34 2.66 4.68 3 4 C2.67 6.64 2.34 9.28 2 12 C1.34 12 0.68 12 0 12 C-0.66 12.66 -1.32 13.32 -2 14 C-3.56977574 12.43022426 -3.20737081 10.85803613 -3.25 8.6875 C-3.22976799 5.51107456 -3.13768129 4.23520554 -1.5 1.4375 C-0.7575 0.7259375 -0.7575 0.7259375 0 0 Z " fill="#3E6FC4" transform="translate(106,72)"/>
<path d="M0 0 C0.556875 0.226875 1.11375 0.45375 1.6875 0.6875 C1.6875 1.6775 1.6875 2.6675 1.6875 3.6875 C-3.66133721 8.6875 -3.66133721 8.6875 -6.3125 8.6875 C-6.3125 7.6975 -6.3125 6.7075 -6.3125 5.6875 C-5.6525 5.3575 -4.9925 5.0275 -4.3125 4.6875 C-5.3025 4.0275 -6.2925 3.3675 -7.3125 2.6875 C-2.88173077 -0.38942308 -2.88173077 -0.38942308 0 0 Z " fill="#1E41B8" transform="translate(40.3125,53.3125)"/>
<path d="M0 0 C1.07396066 4.29584263 1.07329796 7.60212211 1 12 C3.31 12.33 5.62 12.66 8 13 C8 13.33 8 13.66 8 14 C4.7 14 1.4 14 -2 14 C-2.33 13.01 -2.66 12.02 -3 11 C-3.66 11 -4.32 11 -5 11 C-5 9.02 -5 7.04 -5 5 C-4.34 5 -3.68 5 -3 5 C-3 6.32 -3 7.64 -3 9 C-2.34 9 -1.68 9 -1 9 C-0.67 6.03 -0.34 3.06 0 0 Z " fill="#B3C7E2" transform="translate(288,101)"/>
<path d="M0 0 C3.875 1.875 3.875 1.875 5 3 C5.07179964 4.51928038 5.08392007 6.04167482 5.0625 7.5625 C5.05347656 8.38878906 5.04445313 9.21507813 5.03515625 10.06640625 C5.01775391 11.02353516 5.01775391 11.02353516 5 12 C4.01 12 3.02 12 2 12 C0.70756464 7.8803623 -0.26252625 4.33168317 0 0 Z " fill="#0B2769" transform="translate(294,80)"/>
<path d="M0 0 C1.08667969 0.29197266 1.08667969 0.29197266 2.1953125 0.58984375 C2.74960938 0.74582031 3.30390625 0.90179688 3.875 1.0625 C2.885 1.7225 1.895 2.3825 0.875 3.0625 C-0.115 3.76375 -1.105 4.465 -2.125 5.1875 C-5.125 7.0625 -5.125 7.0625 -8.125 7.0625 C-7.52638258 4.71078869 -6.85575648 2.3765622 -6.125 0.0625 C-3.57797384 -1.21101308 -2.6967055 -0.73941925 0 0 Z " fill="#1954BC" transform="translate(113.125,70.9375)"/>
<path d="M0 0 C1.32 0 2.64 0 4 0 C4.33 2.97 4.66 5.94 5 9 C5.66 9 6.32 9 7 9 C7 9.66 7 10.32 7 11 C5.35 11 3.7 11 2 11 C1.34 7.37 0.68 3.74 0 0 Z " fill="#103685" transform="translate(310,102)"/>
<path d="M0 0 C3.3 0 6.6 0 10 0 C10 1.65 10 3.3 10 5 C7.69 4.67 5.38 4.34 3 4 C3 3.34 3 2.68 3 2 C1.68 2.33 0.36 2.66 -1 3 C-0.67 2.01 -0.34 1.02 0 0 Z " fill="#2E4994" transform="translate(263,69)"/>
<path d="M0 0 C1.3125 2.5625 1.3125 2.5625 2 5 C-0.64 5 -3.28 5 -6 5 C-6.66 3.35 -7.32 1.7 -8 0 C-4.65284689 -1.1157177 -3.28928478 -1.1807689 0 0 Z " fill="#1E65D2" transform="translate(204,90)"/>
<path d="M0 0 C1.62463842 -0.05395478 3.24978541 -0.09277195 4.875 -0.125 C5.77992188 -0.14820312 6.68484375 -0.17140625 7.6171875 -0.1953125 C10 0 10 0 12 2 C12 2.99 12 3.98 12 5 C10.3125 5.75 10.3125 5.75 8 6 C5.4375 4.1875 5.4375 4.1875 3 2 C2.01 1.34 1.02 0.68 0 0 Z " fill="#204BA4" transform="translate(198,69)"/>
<path d="M0 0 C0.33 0 0.66 0 1 0 C1.66 3.3 2.32 6.6 3 10 C-4.26 10 -11.52 10 -19 10 C-19 9.67 -19 9.34 -19 9 C-12.73 8.67 -6.46 8.34 0 8 C0 5.36 0 2.72 0 0 Z " fill="#5882DB" transform="translate(92,85)"/>
<path d="M0 0 C0.33 1.32 0.66 2.64 1 4 C1.99 4 2.98 4 4 4 C5.6875 6.5 5.6875 6.5 7 9 C6.01 9 5.02 9 4 9 C3.67 9.99 3.34 10.98 3 12 C1.09598862 10.09598862 0.06479561 8.66574314 -0.19921875 5.953125 C-0.1886578 3.96766727 -0.09915043 1.9830086 0 0 Z " fill="#2A60BB" transform="translate(105,80)"/>
<path d="M0 0 C2.97 0.495 2.97 0.495 6 1 C5.67 1.99 5.34 2.98 5 4 C3.68 4 2.36 4 1 4 C0.67 5.32 0.34 6.64 0 8 C-0.99 8 -1.98 8 -3 8 C-1.125 2.25 -1.125 2.25 0 0 Z " fill="#1372F4" transform="translate(14,96)"/>
<path d="M0 0 C0.99 0 1.98 0 3 0 C1.5 6 1.5 6 0 12 C-1.98 12 -3.96 12 -6 12 C-6 11.67 -6 11.34 -6 11 C-4.35 11 -2.7 11 -1 11 C-1 10.34 -1 9.68 -1 9 C-1.66 9 -2.32 9 -3 9 C-3 7.35 -3 5.7 -3 4 C-2.34 4 -1.68 4 -1 4 C-0.67 2.68 -0.34 1.36 0 0 Z " fill="#7789B7" transform="translate(318,102)"/>
<path d="M0 0 C2.39456443 2.39456443 2.75546876 3.65807308 3 7 C1.6875 8.8125 1.6875 8.8125 0 10 C-0.66 10 -1.32 10 -2 10 C-3.06351675 6.61608307 -3.21442982 5.4195366 -1.5625 2.1875 C-1.046875 1.465625 -0.53125 0.74375 0 0 Z " fill="#2552A9" transform="translate(124,83)"/>
<path d="M0 0 C0 0.66 0 1.32 0 2 C-0.928125 2.433125 -1.85625 2.86625 -2.8125 3.3125 C-5.47184073 4.72038627 -7.08105905 5.76123556 -9 8 C-8.67 5.69 -8.34 3.38 -8 1 C-3.375 -1.125 -3.375 -1.125 0 0 Z " fill="#1F5CC2" transform="translate(203,71)"/>
<path d="M0 0 C2 2 2 2 2.125 5.625 C2.08375 6.73875 2.0425 7.8525 2 9 C0.68 9 -0.64 9 -2 9 C-2.125 5.625 -2.125 5.625 -2 2 C-1.34 1.34 -0.68 0.68 0 0 Z " fill="#123E87" transform="translate(281,105)"/>
<path d="M0 0 C0 0.99 0 1.98 0 3 C-3.3 3 -6.6 3 -10 3 C-10.33 2.34 -10.66 1.68 -11 1 C-3.375 -1.125 -3.375 -1.125 0 0 Z " fill="#0F57E1" transform="translate(246,91)"/>
<path d="M0 0 C1.32 0.33 2.64 0.66 4 1 C4 6.28 4 11.56 4 17 C3.01 16.67 2.02 16.34 1 16 C1.66 16 2.32 16 3 16 C2.88601335 14.37419034 2.75844341 12.74932843 2.625 11.125 C2.55539063 10.22007813 2.48578125 9.31515625 2.4140625 8.3828125 C2.20431868 5.82058097 2.20431868 5.82058097 0 4 C0 2.68 0 1.36 0 0 Z " fill="#0946B9" transform="translate(246,77)"/>
<path d="M0 0 C0.99 0.33 1.98 0.66 3 1 C2.67 3.97 2.34 6.94 2 10 C1.34 10 0.68 10 0 10 C-0.19412181 8.52168779 -0.38012131 7.04230684 -0.5625 5.5625 C-0.66691406 4.73878906 -0.77132813 3.91507812 -0.87890625 3.06640625 C-0.91886719 2.38449219 -0.95882813 1.70257813 -1 1 C-0.67 0.67 -0.34 0.34 0 0 Z " fill="#0E378F" transform="translate(272,82)"/>
<path d="M0 0 C1.9375 0.6875 1.9375 0.6875 4 2 C4.875 4.4375 4.875 4.4375 5 7 C4.01 8.485 4.01 8.485 3 10 C2.67 9.01 2.34 8.02 2 7 C0.70644173 5.62804426 -0.62298702 4.28817344 -2 3 C-1.34 2.67 -0.68 2.34 0 2 C0 1.34 0 0.68 0 0 Z " fill="#1A4DAB" transform="translate(121,70)"/>
<path d="M0 0 C0.99 0 1.98 0 3 0 C3 3.3 3 6.6 3 10 C2.01 10 1.02 10 0 10 C0 6.7 0 3.4 0 0 Z " fill="#234E99" transform="translate(304,103)"/>
<path d="M0 0 C2.97 0.495 2.97 0.495 6 1 C4.70700306 3.88437779 3.34058637 5.87219421 1 8 C0.67 7.01 0.34 6.02 0 5 C-0.66 4.34 -1.32 3.68 -2 3 C-1.34 2.01 -0.68 1.02 0 0 Z " fill="#1F55C1" transform="translate(161,70)"/>
<path d="M0 0 C0.80566406 0.07863281 1.61132812 0.15726563 2.44140625 0.23828125 C3.42947266 0.46064453 3.42947266 0.46064453 4.4375 0.6875 C4.7675 1.3475 5.0975 2.0075 5.4375 2.6875 C4.77363281 2.67589844 4.10976562 2.66429688 3.42578125 2.65234375 C-3.12556787 2.56856591 -3.12556787 2.56856591 -9.5625 3.6875 C-6.31195313 0.289201 -4.70695311 -0.50620523 0 0 Z " fill="#B8DBF9" transform="translate(76.5625,63.3125)"/>
<path d="M0 0 C1.98 0 3.96 0 6 0 C6 0.66 6 1.32 6 2 C6.66 2 7.32 2 8 2 C8 1.34 8 0.68 8 0 C9.32 0.33 10.64 0.66 12 1 C11.01 1 10.02 1 9 1 C8.67 3.64 8.34 6.28 8 9 C6.58622659 6.36095629 5.62759865 3.92879371 5 1 C3.35 1.33 1.7 1.66 0 2 C0 1.34 0 0.68 0 0 Z " fill="#A4BFE8" transform="translate(309,101)"/>
<path d="M0 0 C-0.75 5.75 -0.75 5.75 -3 8 C-3.33 6.68 -3.66 5.36 -4 4 C-4.99 4 -5.98 4 -7 4 C-6.67 3.01 -6.34 2.02 -6 1 C-4 0 -4 0 0 0 Z " fill="#0735C9" transform="translate(51,48)"/>
<path d="M0 0 C0.33 0 0.66 0 1 0 C1 3.3 1 6.6 1 10 C2.65 9.67 4.3 9.34 6 9 C4.75 10.5625 4.75 10.5625 3 12 C1.68 11.67 0.36 11.34 -1 11 C-0.67 7.37 -0.34 3.74 0 0 Z " fill="#6197E4" transform="translate(6,95)"/>
<path d="M0 0 C0.33 0 0.66 0 1 0 C1 2.97 1 5.94 1 9 C1.66 9 2.32 9 3 9 C2.67 9.99 2.34 10.98 2 12 C1.01 12.33 0.02 12.66 -1 13 C-1.02708567 11.39592672 -1.04643483 9.7917215 -1.0625 8.1875 C-1.07410156 7.29417969 -1.08570313 6.40085937 -1.09765625 5.48046875 C-1 3 -1 3 0 0 Z " fill="#2B7AF7" transform="translate(8,88)"/>
<path d="M0 0 C0.33 0 0.66 0 1 0 C1.04898438 0.81984375 1.09796875 1.6396875 1.1484375 2.484375 C1.22320312 3.56203125 1.29796875 4.6396875 1.375 5.75 C1.44460937 6.81734375 1.51421875 7.8846875 1.5859375 8.984375 C1.9728223 11.80206432 2.55686166 13.5830366 4 16 C2.68 16.33 1.36 16.66 0 17 C0 11.39 0 5.78 0 0 Z " fill="#0B45A3" transform="translate(157,77)"/>
<path d="M0 0 C0.66 0.33 1.32 0.66 2 1 C2 1.66 2 2.32 2 3 C4.64 3 7.28 3 10 3 C10 3.33 10 3.66 10 4 C7.69 4 5.38 4 3 4 C2.67 5.32 2.34 6.64 2 8 C0.68 6.68 -0.64 5.36 -2 4 C-1.34 2.68 -0.68 1.36 0 0 Z " fill="#426ABA" transform="translate(287,70)"/>
<path d="M0 0 C3.94727588 -0.17942163 6.5980513 -0.09350689 10 2 C10 3.65 10 5.3 10 7 C9.34 7 8.68 7 8 7 C7.67 5.35 7.34 3.7 7 2 C4.69 1.67 2.38 1.34 0 1 C0 0.67 0 0.34 0 0 Z " fill="#4C5A87" transform="translate(289,100)"/>
<path d="M0 0 C0.804375 0.4640625 0.804375 0.4640625 1.625 0.9375 C4.3984957 2.17827439 7.00042837 2.5909675 10 3 C10 3.33 10 3.66 10 4 C8.906875 4.12375 7.81375 4.2475 6.6875 4.375 C2.92618198 4.75464801 2.92618198 4.75464801 0 7 C0 4.69 0 2.38 0 0 Z " fill="#D7EDFB" transform="translate(194,92)"/>
<path d="M0 0 C2.475 0.99 2.475 0.99 5 2 C4.01 2.33 3.02 2.66 2 3 C2.33 3.99 2.66 4.98 3 6 C2.34 6.66 1.68 7.32 1 8 C-0.42944945 5.64561267 -1.08661261 4.51967567 -0.625 1.75 C-0.41875 1.1725 -0.2125 0.595 0 0 Z " fill="#2367D6" transform="translate(59,80)"/>
<path d="M0 0 C0.99 0.33 1.98 0.66 3 1 C2.67 2.98 2.34 4.96 2 7 C1.01 7.33 0.02 7.66 -1 8 C-1.33 5.69 -1.66 3.38 -2 1 C-1.34 0.67 -0.68 0.34 0 0 Z " fill="#0451B2" transform="translate(159,74)"/>
<path d="M0 0 C0.33 0 0.66 0 1 0 C1.05437607 1.58294782 1.09296271 3.16644256 1.125 4.75 C1.14820313 5.63171875 1.17140625 6.5134375 1.1953125 7.421875 C0.99139502 10.1135858 0.36551721 11.69904974 -1 14 C-1.66 14 -2.32 14 -3 14 C-2.01 9.38 -1.02 4.76 0 0 Z " fill="#3059D0" transform="translate(43,62)"/>
<path d="M0 0 C0.99 0 1.98 0 3 0 C3 2 3 2 1.9375 3.625 C-0.96338818 5.68369484 -3.54480057 5.19557733 -7 5 C-7 4.34 -7 3.68 -7 3 C-3.535 2.505 -3.535 2.505 0 2 C0 1.34 0 0.68 0 0 Z " fill="#0D64E9" transform="translate(27,90)"/>
<path d="M0 0 C1.98 0 3.96 0 6 0 C5.38125 0.350625 4.7625 0.70125 4.125 1.0625 C1.24445747 3.68887702 0.84537162 6.26627537 0 10 C-1.125 8.375 -1.125 8.375 -2 6 C-1.125 2.75 -1.125 2.75 0 0 Z " fill="#1E71F9" transform="translate(15,77)"/>
<path d="M0 0 C2.76223278 2.76223278 2.57856291 5.20706617 3 9 C1.68 9 0.36 9 -1 9 C-1.125 2.25 -1.125 2.25 0 0 Z " fill="#0854CA" transform="translate(59,72)"/>
<path d="M0 0 C-0.33 0.99 -0.66 1.98 -1 3 C-7.15234375 2.4140625 -7.15234375 2.4140625 -9 2 C-9.33 1.34 -9.66 0.68 -10 0 C-6.30581799 -1.231394 -3.7943739 -0.64432764 0 0 Z " fill="#0B42B8" transform="translate(245,71)"/>
<path d="M0 0 C0.33 1.32 0.66 2.64 1 4 C-1.31 4.33 -3.62 4.66 -6 5 C-6 5.66 -6 6.32 -6 7 C-6.99 6.67 -7.98 6.34 -9 6 C-8.34 4.68 -7.68 3.36 -7 2 C-4.69 2.33 -2.38 2.66 0 3 C0 2.01 0 1.02 0 0 Z " fill="#C8E1F4" transform="translate(273,71)"/>
<path d="M0 0 C0.66 0 1.32 0 2 0 C2 2.64 2 5.28 2 8 C0.68 7.67 -0.64 7.34 -2 7 C-1.42415568 4.61435923 -0.77772405 2.33317216 0 0 Z " fill="#1C54B4" transform="translate(271,105)"/>
<path d="M0 0 C0.33 0 0.66 0 1 0 C1 1.65 1 3.3 1 5 C1.66 5 2.32 5 3 5 C2 8 2 8 0 11 C0 10.34 0 9.68 0 9 C-0.66 9 -1.32 9 -2 9 C-1.34 6.03 -0.68 3.06 0 0 Z " fill="#1A64E2" transform="translate(89,74)"/>
<path d="M0 0 C1.65 0.33 3.3 0.66 5 1 C5.33 2.32 5.66 3.64 6 5 C3 6 3 6 0.8125 5.0625 C0.214375 4.711875 -0.38375 4.36125 -1 4 C-0.01 3.34 0.98 2.68 2 2 C1.34 1.34 0.68 0.68 0 0 Z " fill="#0753F1" transform="translate(24,73)"/>
<path d="M0 0 C2.97 0 5.94 0 9 0 C7.02 0.99 7.02 0.99 5 2 C3.29078411 3.5412312 3.29078411 3.5412312 2 5 C1.01 4.67 0.02 4.34 -1 4 C-0.67 2.68 -0.34 1.36 0 0 Z " fill="#1060D9" transform="translate(143,70)"/>
<path d="M0 0 C3.96 0 7.92 0 12 0 C12 0.33 12 0.66 12 1 C10.56496445 1.36402369 9.12683494 1.71586591 7.6875 2.0625 C6.88699219 2.25972656 6.08648437 2.45695312 5.26171875 2.66015625 C3 3 3 3 0 2 C0 1.34 0 0.68 0 0 Z " fill="#0155F6" transform="translate(69,90)"/>
<path d="M0 0 C0.33 0 0.66 0 1 0 C1 1.65 1 3.3 1 5 C-0.98 5.33 -2.96 5.66 -5 6 C-5 6.66 -5 7.32 -5 8 C-5.66 8 -6.32 8 -7 8 C-7 6.68 -7 5.36 -7 4 C-4.69 4 -2.38 4 0 4 C0 2.68 0 1.36 0 0 Z " fill="#C7DCF2" transform="translate(297,70)"/>
<path d="M0 0 C3.125 -0.1875 3.125 -0.1875 6 0 C6.66 1.32 7.32 2.64 8 4 C7.46375 3.835 6.9275 3.67 6.375 3.5 C3.54113991 2.90339788 0.8880194 2.9343632 -2 3 C-1.34 2.01 -0.68 1.02 0 0 Z " fill="#BED4F4" transform="translate(166,73)"/>
<path d="M0 0 C0.66 0 1.32 0 2 0 C2 1.32 2 2.64 2 4 C2.99 4.33 3.98 4.66 5 5 C3.35 5.66 1.7 6.32 0 7 C0 4.69 0 2.38 0 0 Z " fill="#B8D6FA" transform="translate(15,88)"/>
<path d="M0 0 C2.5654594 2.5654594 2.54046087 4.47686668 3 8 C2.01 8 1.02 8 0 8 C-0.38063221 5.6739143 -0.71269945 3.33944736 -1 1 C-0.67 0.67 -0.34 0.34 0 0 Z " fill="#0C2C7B" transform="translate(296,84)"/>
<path d="M0 0 C1.32 0 2.64 0 4 0 C4 0.66 4 1.32 4 2 C4.66 2.33 5.32 2.66 6 3 C3.03 3 0.06 3 -3 3 C-2.01 2.01 -1.02 1.02 0 0 Z " fill="#205DCB" transform="translate(148,71)"/>
<path d="M0 0 C1.65 0 3.3 0 5 0 C4.67 1.65 4.34 3.3 4 5 C2.35 4.01 0.7 3.02 -1 2 C-0.67 1.34 -0.34 0.68 0 0 Z " fill="#183D86" transform="translate(290,79)"/>
<path d="M0 0 C2.31 0.33 4.62 0.66 7 1 C6.67 2.32 6.34 3.64 6 5 C3.98079663 3.69593116 1.98075027 2.36176581 0 1 C0 0.67 0 0.34 0 0 Z " fill="#0B40B9" transform="translate(169,71)"/>
<path d="M0 0 C1.65 0 3.3 0 5 0 C5.33 0.66 5.66 1.32 6 2 C5.67 2.66 5.34 3.32 5 4 C4.34 4 3.68 4 3 4 C3 3.34 3 2.68 3 2 C1.68 2.33 0.36 2.66 -1 3 C-0.67 2.01 -0.34 1.02 0 0 Z " fill="#1A43A0" transform="translate(263,69)"/>
<path d="M0 0 C5.41538462 -0.36923077 5.41538462 -0.36923077 8.375 1.5 C8.91125 1.995 9.4475 2.49 10 3 C7.8125 3.75 7.8125 3.75 5 4 C2.1875 2.0625 2.1875 2.0625 0 0 Z " fill="#0B42A3" transform="translate(198,69)"/>
<path d="M0 0 C1.98 0.495 1.98 0.495 4 1 C4 1.99 4 2.98 4 4 C2.35 3.67 0.7 3.34 -1 3 C-0.67 2.01 -0.34 1.02 0 0 Z " fill="#0632AF" transform="translate(38,53)"/>
<path d="M0 0 C3 3.875 3 3.875 3 5 C1.02 5 -0.96 5 -3 5 C-2.625 3.0625 -2.625 3.0625 -2 1 C-1.34 0.67 -0.68 0.34 0 0 Z " fill="#1A50B6" transform="translate(206,89)"/>
<path d="M0 0 C0.33 0 0.66 0 1 0 C1 1.65 1 3.3 1 5 C1.66 5.33 2.32 5.66 3 6 C-1.55384615 6.36923077 -1.55384615 6.36923077 -3.8125 4.5 C-4.204375 4.005 -4.59625 3.51 -5 3 C-4.360625 2.87625 -3.72125 2.7525 -3.0625 2.625 C-2.0415625 2.315625 -2.0415625 2.315625 -1 2 C-0.67 1.34 -0.34 0.68 0 0 Z " fill="#10399B" transform="translate(295,87)"/>
<path d="M0 0 C0.33 1.32 0.66 2.64 1 4 C1.66 4 2.32 4 3 4 C2.67 5.65 2.34 7.3 2 9 C1.34 8.67 0.68 8.34 0 8 C0 5.36 0 2.72 0 0 Z " fill="#0F51B7" transform="translate(105,80)"/>
<path d="M0 0 C3.26954202 0.56371414 4.82575883 1.49962266 7 4 C4.69 3.67 2.38 3.34 0 3 C0 2.01 0 1.02 0 0 Z " fill="#D0ECFB" transform="translate(260,80)"/>
<path d="M0 0 C2.4294516 3.6441774 2.16179575 5.71241272 2 10 C1.67 9.01 1.34 8.02 1 7 C0.34 7 -0.32 7 -1 7 C-0.67 4.69 -0.34 2.38 0 0 Z " fill="#355193" transform="translate(214,75)"/>
<path d="M0 0 C0.66 0.33 1.32 0.66 2 1 C1.38125 1.7425 0.7625 2.485 0.125 3.25 C-1.60437281 5.48801188 -2.86106661 7.43739987 -4 10 C-3.38461538 3.47692308 -3.38461538 3.47692308 -1.4375 1.0625 C-0.7259375 0.5365625 -0.7259375 0.5365625 0 0 Z " fill="#D6ECFB" transform="translate(112,74)"/>
<path d="M0 0 C2.62187494 1.04874998 3.79371361 1.64931313 5.25 4.125 C5.4975 4.74375 5.745 5.3625 6 6 C4.68 5.67 3.36 5.34 2 5 C2 4.34 2 3.68 2 3 C1.34 3 0.68 3 0 3 C0 2.01 0 1.02 0 0 Z " fill="#C2E0F9" transform="translate(82,66)"/>
<path d="M0 0 C0.66 0 1.32 0 2 0 C2 0.99 2 1.98 2 3 C3.32 3.33 4.64 3.66 6 4 C3.36 4 0.72 4 -2 4 C-1.34 2.68 -0.68 1.36 0 0 Z " fill="#355CC8" transform="translate(25,61)"/>
<path d="M0 0 C0 1.98 0 3.96 0 6 C-0.99 6.33 -1.98 6.66 -3 7 C-3 5.02 -3 3.04 -3 1 C-1 0 -1 0 0 0 Z " fill="#0338B5" transform="translate(49,56)"/>
</svg>
